<svg xmlns="http://www.w3.org/2000/svg" width="20" height="20" viewBox="0 0 20 20">
  <g id="Group_2511" data-name="Group 2511" transform="translate(-4393.448 -2860.448)">
    <g id="Rectangle_713" data-name="Rectangle 713" transform="translate(4393.448 2860.448)" fill="#bb0a36" stroke="#707070" stroke-width="1" opacity="0">
      <rect width="20" height="20" stroke="none"/>
      <rect x="0.5" y="0.5" width="19" height="19" fill="none"/>
    </g>
    <g id="noun-delete-3432340" transform="translate(4396.105 2861.411)">
      <path id="Path_11721" data-name="Path 11721" d="M333.065,251.213a.565.565,0,0,0,.565-.565v-5.084a.565.565,0,0,0-1.13,0v5.084A.565.565,0,0,0,333.065,251.213Z" transform="translate(-325.722 -237.092)" fill="#bb0a36"/>
      <path id="Path_11722" data-name="Path 11722" d="M263.065,267.019a.565.565,0,0,0,.565-.565v-3.389a.565.565,0,1,0-1.13,0v3.389A.565.565,0,0,0,263.065,267.019Z" transform="translate(-257.981 -254.027)" fill="#bb0a36"/>
      <path id="Path_11723" data-name="Path 11723" d="M403.065,267.019a.565.565,0,0,0,.565-.565v-3.389a.565.565,0,0,0-1.13,0v3.389A.565.565,0,0,0,403.065,267.019Z" transform="translate(-393.463 -254.027)" fill="#bb0a36"/>
      <path id="Path_11724" data-name="Path 11724" d="M136.619,1.695H134.2L133.766.386A.564.564,0,0,0,133.23,0h-6.778a.564.564,0,0,0-.536.386l-.436,1.308h-2.417a.565.565,0,0,0-.565.565V4.519a.565.565,0,0,0,.565.565h.565v11.3a1.7,1.7,0,0,0,1.695,1.695h9.037a1.7,1.7,0,0,0,1.695-1.695V5.084h.565a.565.565,0,0,0,.565-.565V2.259a.565.565,0,0,0-.565-.565ZM134.925,16.38a.565.565,0,0,1-.565.565h-9.037a.565.565,0,0,1-.565-.565V5.084h10.167Zm1.13-12.426H123.628V2.824h2.259a.564.564,0,0,0,.536-.386l.436-1.308h5.964l.436,1.308a.565.565,0,0,0,.536.386h2.259Z" transform="translate(-122.498 0)" fill="#bb0a36"/>
    </g>
  </g>
</svg>
