<svg xmlns="http://www.w3.org/2000/svg" width="12.2" height="14.976" viewBox="0 0 12.2 14.976">
  <g id="medical-mask" transform="translate(-47.996 0.1)">
    <path id="Path_300" data-name="Path 300" d="M200.4,208.635v.231a.216.216,0,1,0,.433,0v-.231a.216.216,0,1,0-.433,0Z" transform="translate(-147.912 -202.404)" fill="#fe4f60" stroke="#fe4f60" stroke-width="0.2"/>
    <path id="Path_301" data-name="Path 301" d="M296.6,208.635v.231a.216.216,0,1,0,.433,0v-.231a.216.216,0,1,0-.433,0Z" transform="translate(-241.329 -202.404)" fill="#fe4f60" stroke="#fe4f60" stroke-width="0.2"/>
    <path id="Path_302" data-name="Path 302" d="M177.7,176.517a.216.216,0,0,0-.262-.158l-.925.231a.216.216,0,1,0,.1.42l.925-.231A.216.216,0,0,0,177.7,176.517Z" transform="translate(-124.556 -171.263)" fill="#fe4f60" stroke="#fe4f60" stroke-width="0.2"/>
    <path id="Path_303" data-name="Path 303" d="M289.721,177.017a.216.216,0,0,0,.052-.426l-.925-.231a.216.216,0,1,0-.105.42l.925.231A.216.216,0,0,0,289.721,177.017Z" transform="translate(-233.543 -171.264)" fill="#fe4f60" stroke="#fe4f60" stroke-width="0.2"/>
    <path id="Path_304" data-name="Path 304" d="M59.295,12.993l-2.4-.751a.706.706,0,0,1-.5-.677V11.09a.216.216,0,0,0-.433,0v.476a1.137,1.137,0,0,0,.435.9,3.253,3.253,0,0,1-4.6,0,1.137,1.137,0,0,0,.436-.9v-1.23A3.683,3.683,0,0,0,57.752,7.6h.277a.914.914,0,0,0,.66-.284.9.9,0,0,0-.213-1.409V2.53A2.533,2.533,0,0,0,55.947,0H52.939a1.139,1.139,0,0,0-1.047.694h-.341A1.838,1.838,0,0,0,49.715,2.53v2.64a.216.216,0,0,0,.433,0V2.53a1.4,1.4,0,0,1,1.4-1.4h.5a.216.216,0,0,0,.21-.162.707.707,0,0,1,.683-.532h3.007a2.1,2.1,0,0,1,2.1,2.1V5.785l-.054,0H57.8a.478.478,0,0,1-.478-.478V4.149a1.143,1.143,0,0,0-1.142-1.142.216.216,0,1,0,0,.433.71.71,0,0,1,.709.709V5.306a.911.911,0,0,0,.463.792v.6a.478.478,0,0,1-.478.478H51.32a.478.478,0,0,1-.478-.478V6.1a.911.911,0,0,0,.463-.792V4.149a.71.71,0,0,1,.709-.709h3.239a.216.216,0,0,0,0-.433H52.014a1.143,1.143,0,0,0-1.142,1.142V5.306a.478.478,0,0,1-.478.478H50.2a.931.931,0,0,0-.948.862.9.9,0,0,0,.249.675.914.914,0,0,0,.66.284h.277a3.675,3.675,0,0,0,1.133,2.239q.108.1.224.194v1.529a.706.706,0,0,1-.5.677l-2.4.751a1.137,1.137,0,0,0-.8,1.09v.476a.216.216,0,1,0,.433,0v-.476a.706.706,0,0,1,.5-.677l1.407-.44a4.609,4.609,0,0,0,7.325,0l1.407.44a.706.706,0,0,1,.5.677v.476a.216.216,0,1,0,.433,0v-.476a1.137,1.137,0,0,0-.8-1.09ZM57.783,6.216Zm0,.478V6.216h.207a.505.505,0,0,1,.516.452.478.478,0,0,1-.477.5h-.382A.9.9,0,0,0,57.783,6.694Zm-7.619.478a.478.478,0,0,1-.477-.5.505.505,0,0,1,.516-.452h.207v.478a.9.9,0,0,0,.136.478h-.382Zm.714.433h6.438a3.222,3.222,0,0,1-.108.492H53.171a.216.216,0,0,0,0,.433h3.486a4.891,4.891,0,0,1-5.121,0h.71a.216.216,0,0,0,0-.433h-1.26a3.23,3.23,0,0,1-.108-.492Zm.515,1.355a5.389,5.389,0,0,0,5.407,0,3.244,3.244,0,0,1-5.407,0Zm4.619,4.92a4.133,4.133,0,0,1-1.916.464,4.2,4.2,0,0,1-3.219-1.515l.514-.161a3.686,3.686,0,0,0,5.411,0l.514.161A4.22,4.22,0,0,1,56.012,13.879Z" fill="#fe4f60" stroke="#fe4f60" stroke-width="0.2"/>
  </g>
</svg>
