<svg xmlns="http://www.w3.org/2000/svg" width="13.205" height="12.655" viewBox="0 0 13.205 12.655">
  <path id="star" d="M2.956,13.147a.7.7,0,0,1-.684-.858l.85-3.742L.24,6.02a.7.7,0,0,1,.4-1.228L4.45,4.446,5.957.919a.7.7,0,0,1,1.291,0L8.755,4.446l3.811.346a.7.7,0,0,1,.4,1.228L10.084,8.546l.85,3.742a.7.7,0,0,1-1.044.758L6.6,11.082,3.316,13.047A.7.7,0,0,1,2.956,13.147ZM6.6,10.236a.7.7,0,0,1,.36.1l3.1,1.855-.8-3.532a.7.7,0,0,1,.222-.684l2.72-2.386-3.6-.327a.7.7,0,0,1-.583-.425L6.6,1.508,5.18,4.837a.7.7,0,0,1-.582.424L1,5.588l2.72,2.386a.7.7,0,0,1,.222.684l-.8,3.532,3.1-1.855A.7.7,0,0,1,6.6,10.236ZM4.421,4.514h0Zm4.362,0h0Zm0,0" transform="translate(0 -0.492)" fill="#fe4f60"/>
</svg>
